<svg xmlns="http://www.w3.org/2000/svg" width="1920" height="551" fill="none"><mask id="a" width="1920" height="551" x="0" y="0" maskUnits="userSpaceOnUse" style="mask-type:alpha"><path fill="#fff" d="M0 0h1920v551H0z"/></mask><g mask="url(#a)"><path fill="url(#b)" d="M1920-77h628v1920h-628z" transform="rotate(90 1920 -77)"/><g opacity=".6"><g filter="url(#c)"><circle cx="1170.5" cy="780.5" r="295.5" fill="#0344DC"/></g><g filter="url(#d)"><circle cx="677.5" cy="747.5" r="270.5" fill="#EE27FF"/></g><g filter="url(#e)"><circle cx="977.49" cy="646.49" r="123.49" fill="#01203F"/></g></g><mask id="g" width="1920" height="551" x="8" y="0" maskUnits="userSpaceOnUse" style="mask-type:alpha"><path fill="url(#f)" d="M8 0h1920v551H8z"/></mask><g stroke="#fff" stroke-width=".5" mask="url(#g)" opacity=".28"><path d="M132.593 12.25h245m-245 30.625h245m-245 30.625h245m-245-122.5V73.5M163.217-49V73.5M193.845-49V73.5M224.468-49V73.5M255.093-49V73.5M285.718-49V73.5M316.342-49V73.5M346.967-49V73.5M377.594-49V73.5m-245.001 0h245m-245 30.625h245m-245 30.625h245m-245 30.625h245m-245 30.625h245m-245-122.5V196m30.624-122.5V196m30.628-122.5V196m30.623-122.5V196m30.625-122.5V196m30.625-122.5V196m30.624-122.5V196m30.625-122.5V196m30.627-122.5V196m-245.001 0h245m-245 30.625h245m-245 30.625h245m-245 30.625h245m-245 30.625h245m-245-122.5v122.5M163.217 196v122.5M193.845 196v122.5M224.468 196v122.5M255.093 196v122.5M285.718 196v122.5M316.342 196v122.5M346.967 196v122.5M377.594 196v122.5m-245.001 0h245m-245 30.625h245m-245 30.625h245m-245 30.625h245m-245 30.625h245m-245-122.5V441m30.624-122.5V441m30.628-122.5V441m30.623-122.5V441m30.625-122.5V441m30.625-122.5V441m30.624-122.5V441m30.625-122.5V441m30.627-122.5V441m-245.001 0h245m-245 30.625h245m-245 30.625h245m-245 30.625h245m-245-91.875v122.5M163.217 441v122.5M193.845 441v122.5M224.468 441v122.5M255.093 441v122.5M285.718 441v122.5M316.342 441v122.5M346.967 441v122.5M377.594 441v122.5m0-551.25h245m-245 30.625h245m-245 30.625h245m-245-122.5V73.5M408.218-49V73.5M438.846-49V73.5M469.47-49V73.5M500.094-49V73.5M530.72-49V73.5M561.344-49V73.5M591.968-49V73.5M622.596-49V73.5m-245.002 0h245m-245 30.625h245m-245 30.625h245m-245 30.625h245m-245 30.625h245m-245-122.5V196m30.624-122.5V196m30.628-122.5V196M469.47 73.5V196m30.624-122.5V196M530.72 73.5V196m30.624-122.5V196m30.624-122.5V196m30.628-122.5V196m-245.002 0h245m-245 30.625h245m-245 30.625h245m-245 30.625h245m-245 30.625h245m-245-122.5v122.5M408.218 196v122.5M438.846 196v122.5M469.47 196v122.5M500.094 196v122.5M530.72 196v122.5M561.344 196v122.5M591.968 196v122.5M622.596 196v122.5m-245.002 0h245m-245 30.625h245m-245 30.625h245m-245 30.625h245m-245 30.625h245m-245-122.5V441m30.624-122.5V441m30.628-122.5V441m30.624-122.5V441m30.624-122.5V441m30.626-122.5V441m30.624-122.5V441m30.624-122.5V441m30.628-122.5V441m-245.002 0h245m-245 30.625h245m-245 30.625h245m-245 30.625h245m-245-91.875v122.5M408.218 441v122.5M438.846 441v122.5M469.47 441v122.5M500.094 441v122.5M530.72 441v122.5M561.344 441v122.5M591.968 441v122.5M622.596 441v122.5m-.004-551.25h245m-245 30.625h245m-245 30.625h245m-245-122.5V73.5M653.217-49V73.5M683.843-49V73.5M714.468-49V73.5M745.091-49V73.5M775.717-49V73.5M806.342-49V73.5M836.967-49V73.5M867.593-49V73.5m-245.001 0h245m-245 30.625h245m-245 30.625h245m-245 30.625h245m-245 30.625h245m-245-122.5V196m30.625-122.5V196m30.626-122.5V196m30.625-122.5V196m30.623-122.5V196m30.626-122.5V196m30.625-122.5V196m30.625-122.5V196m30.626-122.5V196m-245.001 0h245m-245 30.625h245m-245 30.625h245m-245 30.625h245m-245 30.625h245m-245-122.5v122.5M653.217 196v122.5M683.843 196v122.5M714.468 196v122.5M745.091 196v122.5M775.717 196v122.5M806.342 196v122.5M836.967 196v122.5M867.593 196v122.5m-245.001 0h245m-245 30.625h245m-245 30.625h245m-245 30.625h245m-245 30.625h245m-245-122.5V441m30.625-122.5V441m30.626-122.5V441m30.625-122.5V441m30.623-122.5V441m30.626-122.5V441m30.625-122.5V441m30.625-122.5V441m30.626-122.5V441m-245.001 0h245m-245 30.625h245m-245 30.625h245m-245 30.625h245m-245-91.875v122.5M653.217 441v122.5M683.843 441v122.5M714.468 441v122.5M745.091 441v122.5M775.717 441v122.5M806.342 441v122.5M836.967 441v122.5M867.593 441v122.5m0-551.25h244.997M867.593 42.875h244.997M867.593 73.5h244.997M867.593-49V73.5M898.217-49V73.5M928.844-49V73.5M959.468-49V73.5M990.093-49V73.5M1020.72-49V73.5M1051.34-49V73.5M1081.97-49V73.5M1112.59-49V73.5m-244.997 0h244.997m-244.997 30.625h244.997M867.593 134.75h244.997m-244.997 30.625h244.997M867.593 196h244.997M867.593 73.5V196m30.624-122.5V196m30.627-122.5V196m30.624-122.5V196m30.625-122.5V196m30.627-122.5V196m30.62-122.5V196m30.63-122.5V196m30.62-122.5V196m-244.997 0h244.997m-244.997 30.625h244.997M867.593 257.25h244.997m-244.997 30.625h244.997M867.593 318.5h244.997M867.593 196v122.5M898.217 196v122.5M928.844 196v122.5M959.468 196v122.5M990.093 196v122.5M1020.72 196v122.5m30.62-122.5v122.5m30.63-122.5v122.5m30.62-122.5v122.5m-244.997 0h244.997m-244.997 30.625h244.997M867.593 379.75h244.997m-244.997 30.625h244.997M867.593 441h244.997M867.593 318.5V441m30.624-122.5V441m30.627-122.5V441m30.624-122.5V441m30.625-122.5V441m30.627-122.5V441m30.62-122.5V441m30.63-122.5V441m30.62-122.5V441m-244.997 0h244.997m-244.997 30.625h244.997M867.593 502.25h244.997m-244.997 30.625h244.997M867.593 441v122.5M898.218 441v122.5M928.844 441v122.5M959.468 441v122.5M990.093 441v122.5M1020.72 441v122.5m30.62-122.5v122.5m30.63-122.5v122.5m30.62-122.5v122.5m0-551.25h245m-245 30.625h245m-245 30.625h245m-245-122.5V73.5M1143.22-49V73.5M1173.84-49V73.5M1204.47-49V73.5M1235.09-49V73.5M1265.72-49V73.5M1296.34-49V73.5M1326.97-49V73.5M1357.59-49V73.5m-245 0h245m-245 30.625h245m-245 30.625h245m-245 30.625h245m-245 30.625h245m-245-122.5V196m30.63-122.5V196m30.62-122.5V196m30.63-122.5V196m30.62-122.5V196m30.63-122.5V196m30.62-122.5V196m30.63-122.5V196m30.62-122.5V196m-245 0h245m-245 30.625h245m-245 30.625h245m-245 30.625h245m-245 30.625h245m-245-122.5v122.5m30.63-122.5v122.5m30.62-122.5v122.5m30.63-122.5v122.5m30.62-122.5v122.5m30.63-122.5v122.5m30.62-122.5v122.5m30.63-122.5v122.5m30.62-122.5v122.5m-245 0h245m-245 30.625h245m-245 30.625h245m-245 30.625h245m-245 30.625h245m-245-122.5V441m30.63-122.5V441m30.62-122.5V441m30.63-122.5V441m30.62-122.5V441m30.63-122.5V441m30.62-122.5V441m30.63-122.5V441m30.62-122.5V441m-245 0h245m-245 30.625h245m-245 30.625h245m-245 30.625h245m-245-91.875v122.5m30.63-122.5v122.5m30.62-122.5v122.5m30.63-122.5v122.5m30.62-122.5v122.5m30.63-122.5v122.5m30.62-122.5v122.5m30.63-122.5v122.5m30.62-122.5v122.5m0-551.25h245m-245 30.625h245m-245 30.625h245m-245-122.5V73.5M1388.22-49V73.5M1418.84-49V73.5M1449.47-49V73.5M1480.09-49V73.5M1510.72-49V73.5M1541.34-49V73.5M1571.97-49V73.5M1602.59-49V73.5m-245 0h245m-245 30.625h245m-245 30.625h245m-245 30.625h245m-245 30.625h245m-245-122.5V196m30.63-122.5V196m30.62-122.5V196m30.63-122.5V196m30.62-122.5V196m30.63-122.5V196m30.62-122.5V196m30.63-122.5V196m30.62-122.5V196m-245 0h245m-245 30.625h245m-245 30.625h245m-245 30.625h245m-245 30.625h245m-245-122.5v122.5m30.63-122.5v122.5m30.62-122.5v122.5m30.63-122.5v122.5m30.62-122.5v122.5m30.63-122.5v122.5m30.62-122.5v122.5m30.63-122.5v122.5m30.62-122.5v122.5m-245 0h245m-245 30.625h245m-245 30.625h245m-245 30.625h245m-245 30.625h245m-245-122.5V441m30.63-122.5V441m30.62-122.5V441m30.63-122.5V441m30.62-122.5V441m30.63-122.5V441m30.62-122.5V441m30.63-122.5V441m30.62-122.5V441m-245 0h245m-245 30.625h245m-245 30.625h245m-245 30.625h245m-245-91.875v122.5m30.63-122.5v122.5m30.62-122.5v122.5m30.63-122.5v122.5m30.62-122.5v122.5m30.63-122.5v122.5m30.62-122.5v122.5m30.63-122.5v122.5m30.62-122.5v122.5m0-551.25h245m-245 30.625h245m-245 30.625h245m-245-122.5V73.5M1633.22-49V73.5M1663.84-49V73.5M1694.47-49V73.5M1725.09-49V73.5M1755.72-49V73.5M1786.34-49V73.5M1816.97-49V73.5M1847.59-49V73.5m-245 0h245m-245 30.625h245m-245 30.625h245m-245 30.625h245m-245 30.625h245m-245-122.5V196m30.63-122.5V196m30.62-122.5V196m30.63-122.5V196m30.62-122.5V196m30.63-122.5V196m30.62-122.5V196m30.63-122.5V196m30.62-122.5V196m-245 0h245m-245 30.625h245m-245 30.625h245m-245 30.625h245m-245 30.625h245m-245-122.5v122.5m30.63-122.5v122.5m30.62-122.5v122.5m30.63-122.5v122.5m30.62-122.5v122.5m30.63-122.5v122.5m30.62-122.5v122.5m30.63-122.5v122.5m30.62-122.5v122.5m-245 0h245m-245 30.625h245m-245 30.625h245m-245 30.625h245m-245 30.625h245m-245-122.5V441m30.63-122.5V441m30.62-122.5V441m30.63-122.5V441m30.62-122.5V441m30.63-122.5V441m30.62-122.5V441m30.63-122.5V441m30.62-122.5V441m-245 0h245m-245 30.625h245m-245 30.625h245m-245 30.625h245m-245-91.875v122.5m30.63-122.5v122.5m30.62-122.5v122.5m30.63-122.5v122.5m30.62-122.5v122.5m30.63-122.5v122.5m30.62-122.5v122.5m30.63-122.5v122.5m30.62-122.5v122.5"/></g></g><defs><filter id="c" width="1391" height="1391" x="475" y="85" color-interpolation-filters="sRGB" filterUnits="userSpaceOnUse"><feFlood flood-opacity="0" result="BackgroundImageFix"/><feBlend in="SourceGraphic" in2="BackgroundImageFix" result="shape"/><feGaussianBlur result="effect1_foregroundBlur_294_10199" stdDeviation="200"/></filter><filter id="d" width="1241" height="1241" x="57" y="127" color-interpolation-filters="sRGB" filterUnits="userSpaceOnUse"><feFlood flood-opacity="0" result="BackgroundImageFix"/><feBlend in="SourceGraphic" in2="BackgroundImageFix" result="shape"/><feGaussianBlur result="effect1_foregroundBlur_294_10199" stdDeviation="175"/></filter><filter id="e" width="646.98" height="646.98" x="654" y="323" color-interpolation-filters="sRGB" filterUnits="userSpaceOnUse"><feFlood flood-opacity="0" result="BackgroundImageFix"/><feBlend in="SourceGraphic" in2="BackgroundImageFix" result="shape"/><feGaussianBlur result="effect1_foregroundBlur_294_10199" stdDeviation="100"/></filter><radialGradient id="f" cx="0" cy="0" r="1" gradientTransform="matrix(709.17312 -392.9134 1184.87324 2138.5889 128.902 559.442)" gradientUnits="userSpaceOnUse"><stop stop-color="#D9D9D9" stop-opacity="0"/><stop offset=".284" stop-color="#D9D9D9"/></radialGradient><linearGradient id="b" x1="2548" x2="1956.89" y1="909" y2="909" gradientUnits="userSpaceOnUse"><stop offset=".604" stop-color="#F1F6FF"/><stop offset="1" stop-color="#F1F6FF" stop-opacity="0"/></linearGradient></defs></svg>